<svg xmlns="http://www.w3.org/2000/svg" viewBox="0 0 720 200" fill="none">
  <!-- Icon -->
  <g transform="translate(20, 5) scale(0.37)">
    <!-- Database cylinder -->
    <ellipse cx="256" cy="320" rx="100" ry="28" fill="none" stroke="#06B6D4" stroke-width="4" opacity="0.6"/>
    <line x1="156" y1="280" x2="156" y2="320" stroke="#06B6D4" stroke-width="4" opacity="0.6"/>
    <line x1="356" y1="280" x2="356" y2="320" stroke="#06B6D4" stroke-width="4" opacity="0.6"/>
    <ellipse cx="256" cy="280" rx="100" ry="28" fill="none" stroke="#06B6D4" stroke-width="4" opacity="0.8"/>
    <line x1="156" y1="240" x2="156" y2="280" stroke="#06B6D4" stroke-width="4" opacity="0.8"/>
    <line x1="356" y1="240" x2="356" y2="280" stroke="#06B6D4" stroke-width="4" opacity="0.8"/>
    <ellipse cx="256" cy="240" rx="100" ry="28" fill="none" stroke="#06B6D4" stroke-width="4"/>

    <!-- Neural network nodes -->
    <circle cx="200" cy="140" r="12" fill="#4F46E5"/>
    <circle cx="256" cy="115" r="12" fill="#4F46E5"/>
    <circle cx="312" cy="140" r="12" fill="#4F46E5"/>
    <circle cx="216" cy="190" r="9" fill="#7C3AED"/>
    <circle cx="256" cy="178" r="9" fill="#7C3AED"/>
    <circle cx="296" cy="190" r="9" fill="#7C3AED"/>

    <!-- Connections -->
    <line x1="200" y1="150" x2="216" y2="183" stroke="#818CF8" stroke-width="2" opacity="0.5"/>
    <line x1="200" y1="150" x2="256" y2="171" stroke="#818CF8" stroke-width="2" opacity="0.3"/>
    <line x1="256" y1="125" x2="216" y2="183" stroke="#818CF8" stroke-width="2" opacity="0.3"/>
    <line x1="256" y1="125" x2="256" y2="171" stroke="#818CF8" stroke-width="2" opacity="0.5"/>
    <line x1="256" y1="125" x2="296" y2="183" stroke="#818CF8" stroke-width="2" opacity="0.3"/>
    <line x1="312" y1="150" x2="256" y2="171" stroke="#818CF8" stroke-width="2" opacity="0.3"/>
    <line x1="312" y1="150" x2="296" y2="183" stroke="#818CF8" stroke-width="2" opacity="0.5"/>
    <line x1="216" y1="199" x2="206" y2="216" stroke="#06B6D4" stroke-width="2" opacity="0.4"/>
    <line x1="256" y1="187" x2="256" y2="216" stroke="#06B6D4" stroke-width="2" opacity="0.4"/>
    <line x1="296" y1="199" x2="306" y2="216" stroke="#06B6D4" stroke-width="2" opacity="0.4"/>

    <!-- Datalog symbol -->
    <text x="256" y="288" text-anchor="middle" font-size="36" font-family="serif" fill="#A78BFA" opacity="0.7">∀</text>
  </g>

  <!-- Text: AnamDB -->
  <text x="220" y="125" font-family="Inter, -apple-system, BlinkMacSystemFont, 'Segoe UI', Helvetica, Arial, sans-serif" font-size="72" font-weight="700" fill="white" letter-spacing="-2">
    Anam<tspan fill="#06B6D4">DB</tspan>
  </text>
</svg>
